<svg xmlns="http://www.w3.org/2000/svg" viewBox="0 0 325.067 194.639" xmlns:v="https://vecta.io/nano"><path d="M323.973 75.66l.056 2.25c0 46.563-36.668 84.3-81.9 84.3-15.176.008-30.04-4.313-42.847-12.455-13.2-6.792-25.055-15.924-34.993-26.95-5.487 11.7-11.96 18.95-19.515 25.76-11.45 10.67-31.246 19.343-50.915 19.343-37.18 0-65.574-29.49-65.9-63.437-.123-13.16 2.874-25.73 9.062-36.2 18.155-36 64.96-61.752 122.355-68.132C118.59-1.196 81.716 7.04 55.09 22.4 10.348 41.9-11.548 92.838 6.118 137.925c18.092 46.173 70.812 68.694 117.752 50.3a91.8 91.8 0 0 0 47.008-41.07c15.986 19.79 40.08 32.5 67.04 32.4 52.315-.183 87.15-40.166 87.15-89.714-.002-4.748-.368-9.488-1.095-14.18z" fill="#fff"/><path d="M259.995 7.312v-.2l-3.95-.813-2.1-.433c-15.04-3.007-30.968-5.36-47.42-4.28-77.93 5.11-137.056 29.417-157.99 68.684-4.5 7.58-7.16 16.107-7.766 24.9-.075.66-.184 1.312-.24 1.98l.145-.026c-.026.706-.1 1.4-.1 2.11 0 30.735 24.2 55.65 54.06 55.65a52.74 52.74 0 0 0 32.015-10.881c12-6.907 24.038-20.56 32.364-38.365.56-1.194 1.067-2.388 1.575-3.582 13.426 15.183 28.5 26.69 43.36 33.7 11.054 7.342 24.03 11.257 37.3 11.254 38.192 0 69.152-31.87 69.152-71.186-.007-32.62-21.335-60.1-50.407-68.513zm-65.163 33.514l22.543.01.016 9.208h-13.346v8.853l-9.21-.047zm.028 62.67l-.008-18.4 9.208.048V94.3h13.407l.016 9.21zm58.078-62.646l22.626.008.008 18.4-9.208-.047v-9.147h-13.406zm.1 62.668l-.016-9.208h13.346v-8.854l9.21.047.008 18.024z" fill="#fc8b18"/></svg>