<svg id="Layer_1" data-name="Layer 1" xmlns="http://www.w3.org/2000/svg" viewBox="0 0 1044.644 194.639"><defs><style>.cls-1{fill:#ff5e4d;}</style></defs><title>logo-tagline</title><path d="M669.978,530.335c.02.75.056,1.5.056,2.25,0,46.563-36.668,84.31-81.9,84.31a79.783,79.783,0,0,1-42.847-12.455,122.675,122.675,0,0,1-34.993-26.95c-5.487,11.7-11.959,18.951-19.515,25.761-11.45,10.669-31.246,19.343-50.915,19.343-37.181,0-65.574-29.491-65.89-63.437-.123-13.161,2.874-25.73,9.062-36.21,18.155-36,64.961-61.752,122.355-68.132-40.795-1.337-77.67,6.9-104.295,22.249-44.743,19.5-66.639,70.448-48.973,115.535,18.092,46.173,70.812,68.694,117.752,50.3a91.8,91.8,0,0,0,47.008-41.07c15.986,19.791,40.081,32.49,67.039,32.4,52.315-.183,87.151-40.166,87.151-89.714A92.867,92.867,0,0,0,669.978,530.335Z" transform="translate(-346.005 -454.674)"/><path d="M777.275,562.917l-18.06-25.887a33.424,33.424,0,0,1-3.409.126H735.852v25.761H719.434v-88.4h36.372a48.955,48.955,0,0,1,20.018,3.788,29.126,29.126,0,0,1,13.07,10.861,30.384,30.384,0,0,1,4.545,16.8,29.957,29.957,0,0,1-4.861,17.175,28.918,28.918,0,0,1-13.954,10.735l20.331,29.045Zm-5.935-69.962q-5.56-4.548-16.292-4.547h-19.2v35.234h19.2q10.732,0,16.292-4.609t5.555-13.071Q776.9,497.5,771.34,492.955Z" transform="translate(-346.005 -454.674)"/><path d="M873.38,534.251H820.467a18.328,18.328,0,0,0,7.261,11.808q5.873,4.356,14.586,4.357,11.111,0,18.312-7.325l8.461,9.725a28.489,28.489,0,0,1-11.493,8.208,45.553,45.553,0,0,1-35.234-1.642,31.817,31.817,0,0,1-13.07-12.312,34.74,34.74,0,0,1-4.61-17.87,35.267,35.267,0,0,1,4.484-17.744A31.8,31.8,0,0,1,821.6,499.142a36.309,36.309,0,0,1,17.934-4.42,35.37,35.37,0,0,1,17.616,4.357,30.847,30.847,0,0,1,12.125,12.251,37.134,37.134,0,0,1,4.358,18.249Q873.635,531.22,873.38,534.251Zm-46.662-22.417a18.862,18.862,0,0,0-6.377,11.935h38.265a18.632,18.632,0,0,0-6.189-11.872,18.829,18.829,0,0,0-12.881-4.546A19.053,19.053,0,0,0,826.718,511.834Z" transform="translate(-346.005 -454.674)"/><path d="M951.931,534.251H899.017a18.332,18.332,0,0,0,7.261,11.808q5.874,4.356,14.587,4.357,11.111,0,18.312-7.325l8.461,9.725a28.489,28.489,0,0,1-11.493,8.208,45.553,45.553,0,0,1-35.234-1.642,31.817,31.817,0,0,1-13.07-12.312,34.74,34.74,0,0,1-4.61-17.87,35.267,35.267,0,0,1,4.484-17.744,31.8,31.8,0,0,1,12.438-12.314,36.309,36.309,0,0,1,17.934-4.42,35.37,35.37,0,0,1,17.616,4.357,30.853,30.853,0,0,1,12.125,12.251,37.134,37.134,0,0,1,4.357,18.249Q952.185,531.22,951.931,534.251Zm-46.662-22.417a18.858,18.858,0,0,0-6.377,11.935h38.265a18.636,18.636,0,0,0-6.189-11.872,18.829,18.829,0,0,0-12.881-4.546A19.051,19.051,0,0,0,905.269,511.834Z" transform="translate(-346.005 -454.674)"/><path d="M984.765,491.944v4.041h18.566v12.629h-18.06v54.3H969.485v-54.3H958.372V495.985h11.113v-4.293q0-10.861,6.316-17.113t17.8-6.252q9.091,0,14.271,3.663l-4.42,11.872a15.1,15.1,0,0,0-8.715-2.779Q984.767,481.083,984.765,491.944Z" transform="translate(-346.005 -454.674)"/><path d="M1096.278,474.516l-38.52,88.4h-16.164l-38.645-88.4h17.808l29.424,68.2,29.679-68.2Z" transform="translate(-346.005 -454.674)"/><path d="M1105.495,481.651a9.312,9.312,0,0,1,0-13.513,10.143,10.143,0,0,1,7.2-2.715,10.428,10.428,0,0,1,7.2,2.59,8.35,8.35,0,0,1,2.9,6.5,9.517,9.517,0,0,1-2.842,7.009,9.828,9.828,0,0,1-7.261,2.842A10.139,10.139,0,0,1,1105.495,481.651Zm-.758,13.829h15.786v67.437h-15.786Z" transform="translate(-346.005 -454.674)"/><path d="M1146.032,561.656a40.3,40.3,0,0,1-12.5-5.43l6.061-12a38.956,38.956,0,0,0,10.925,4.862,45.372,45.372,0,0,0,12.567,1.831q14.14,0,14.144-7.451a4.98,4.98,0,0,0-3.6-4.926,62.371,62.371,0,0,0-11.555-2.651,93.351,93.351,0,0,1-13.576-2.9,20.807,20.807,0,0,1-9.093-5.746q-3.855-4.1-3.852-11.429a17.962,17.962,0,0,1,8.019-15.344q8.018-5.747,21.657-5.747a62.541,62.541,0,0,1,13.893,1.579,39.043,39.043,0,0,1,11.367,4.231l-6.064,12a37.384,37.384,0,0,0-19.321-5.052q-6.945,0-10.545,2.084t-3.6,5.493q0,3.789,3.852,5.368a61.136,61.136,0,0,0,11.934,2.967,92.486,92.486,0,0,1,13.261,2.9,20.779,20.779,0,0,1,8.9,5.556q3.723,3.916,3.725,11.114,0,9.471-8.209,15.154t-22.351,5.682A60.39,60.39,0,0,1,1146.032,561.656Z" transform="translate(-346.005 -454.674)"/><path d="M1207.029,481.651a9.312,9.312,0,0,1,0-13.513,10.143,10.143,0,0,1,7.2-2.715,10.428,10.428,0,0,1,7.2,2.59,8.35,8.35,0,0,1,2.9,6.5,9.517,9.517,0,0,1-2.842,7.009,9.829,9.829,0,0,1-7.261,2.842A10.139,10.139,0,0,1,1207.029,481.651Zm-.758,13.829h15.786v67.437h-15.786Z" transform="translate(-346.005 -454.674)"/><path d="M1254.639,559.382a32.207,32.207,0,0,1-12.819-12.312,36.825,36.825,0,0,1,0-35.677,32.357,32.357,0,0,1,12.819-12.251,40.93,40.93,0,0,1,37,0,32.373,32.373,0,0,1,12.818,12.251,36.818,36.818,0,0,1,0,35.677,32.224,32.224,0,0,1-12.818,12.312,40.938,40.938,0,0,1-37,0Zm32.834-14.9q5.685-5.808,5.684-15.281t-5.684-15.282a19.286,19.286,0,0,0-14.4-5.809,19.088,19.088,0,0,0-14.335,5.809q-5.619,5.811-5.619,15.282t5.619,15.281a19.084,19.084,0,0,0,14.335,5.809A19.282,19.282,0,0,0,1287.473,544.481Z" transform="translate(-346.005 -454.674)"/><path d="M1382.946,502.174q7.7,7.452,7.7,22.1v38.643h-15.786V526.295q0-8.839-4.168-13.324t-11.87-4.483q-8.715,0-13.765,5.241t-5.054,15.092v34.1H1324.22V495.48h15.031v8.714a24.678,24.678,0,0,1,9.848-7.072,35.468,35.468,0,0,1,13.389-2.4Q1375.242,494.722,1382.946,502.174Z" transform="translate(-346.005 -454.674)"/><text x="-346.005" y="-454.674"/><path d="M734.813,587.016h3.5l-7.235,20.66h-3.561l-7.207-20.66h3.476l4.31,12.844q.339.921.721,2.369t.5,2.153q.183-1.071.565-2.487t.622-2.092Z" transform="translate(-346.005 -454.674)"/><path d="M740.494,587.907a1.831,1.831,0,0,1,.488-1.372,1.893,1.893,0,0,1,1.391-.48,1.684,1.684,0,0,1,1.851,1.852,1.8,1.8,0,0,1-.488,1.334,1.835,1.835,0,0,1-1.363.488,1.876,1.876,0,0,1-1.391-.488A1.792,1.792,0,0,1,740.494,587.907Zm3.518,19.769h-3.321v-15.63h3.321Z" transform="translate(-346.005 -454.674)"/><path d="M759.26,603.226a4.088,4.088,0,0,1-1.667,3.51,8,8,0,0,1-4.777,1.223,11.3,11.3,0,0,1-5.016-.946v-2.87a12.314,12.314,0,0,0,5.129,1.272q3.066,0,3.067-1.85a1.476,1.476,0,0,0-.339-.992,4.063,4.063,0,0,0-1.117-.817,18.809,18.809,0,0,0-2.162-.961,10.05,10.05,0,0,1-3.653-2.091,3.882,3.882,0,0,1-.954-2.714,3.564,3.564,0,0,1,1.619-3.116,7.67,7.67,0,0,1,4.4-1.11,12.458,12.458,0,0,1,5.215,1.117l-1.074,2.5a11.62,11.62,0,0,0-4.254-1.045q-2.628,0-2.628,1.5a1.506,1.506,0,0,0,.686,1.243,15.235,15.235,0,0,0,2.988,1.4,13.621,13.621,0,0,1,2.812,1.369,4.074,4.074,0,0,1,1.3,1.434A4.149,4.149,0,0,1,759.26,603.226Z" transform="translate(-346.005 -454.674)"/><path d="M762.652,587.907a1.835,1.835,0,0,1,.488-1.372,1.894,1.894,0,0,1,1.391-.48,1.686,1.686,0,0,1,1.852,1.852,1.793,1.793,0,0,1-.489,1.334,1.834,1.834,0,0,1-1.363.488,1.877,1.877,0,0,1-1.391-.488A1.8,1.8,0,0,1,762.652,587.907Zm3.519,19.769H762.85v-15.63h3.321Z" transform="translate(-346.005 -454.674)"/><path d="M784.782,599.834a8.533,8.533,0,0,1-1.964,5.977,7.043,7.043,0,0,1-5.469,2.148,7.477,7.477,0,0,1-3.872-.99,6.525,6.525,0,0,1-2.586-2.839,9.682,9.682,0,0,1-.9-4.3,8.467,8.467,0,0,1,1.95-5.935,7.069,7.069,0,0,1,5.5-2.135,6.881,6.881,0,0,1,5.37,2.184A8.426,8.426,0,0,1,784.782,599.834Zm-11.376,0q0,5.412,4,5.411,3.957,0,3.957-5.411,0-5.356-3.985-5.357a3.4,3.4,0,0,0-3.031,1.385A7.04,7.04,0,0,0,773.406,599.834Z" transform="translate(-346.005 -454.674)"/><path d="M802.347,607.676h-3.335v-9.61a4.2,4.2,0,0,0-.728-2.7,2.8,2.8,0,0,0-2.31-.892,3.672,3.672,0,0,0-3.081,1.244,6.867,6.867,0,0,0-.975,4.17v7.785H788.6v-15.63h2.6l.466,2.048h.169a4.623,4.623,0,0,1,2.007-1.721,6.714,6.714,0,0,1,2.883-.609q5.625,0,5.624,5.722Z" transform="translate(-346.005 -454.674)"/><path d="M824.264,607.676,823.6,605.5h-.113a6.412,6.412,0,0,1-2.276,1.942,7.179,7.179,0,0,1-2.938.517,4.977,4.977,0,0,1-3.6-1.244,4.663,4.663,0,0,1-1.292-3.52,4.128,4.128,0,0,1,1.795-3.643,10.3,10.3,0,0,1,5.467-1.344l2.7-.085v-.832a3.151,3.151,0,0,0-.7-2.241,2.837,2.837,0,0,0-2.168-.743,7.577,7.577,0,0,0-2.3.352,17.332,17.332,0,0,0-2.12.836l-1.074-2.375a11.628,11.628,0,0,1,2.784-1.009,12.744,12.744,0,0,1,2.856-.347,6.763,6.763,0,0,1,4.5,1.3,5.086,5.086,0,0,1,1.516,4.083v10.529Zm-4.945-2.261a4.122,4.122,0,0,0,2.905-1.01,3.664,3.664,0,0,0,1.095-2.834v-1.357l-2.01.085a6.889,6.889,0,0,0-3.411.784,2.39,2.39,0,0,0-1.066,2.143,2.082,2.082,0,0,0,.622,1.616A2.666,2.666,0,0,0,819.319,605.415Z" transform="translate(-346.005 -454.674)"/><path d="M845.025,607.676H841.69v-9.61a4.2,4.2,0,0,0-.73-2.7,2.805,2.805,0,0,0-2.31-.892,3.673,3.673,0,0,0-3.081,1.244,6.866,6.866,0,0,0-.976,4.17v7.785h-3.32v-15.63h2.6l.467,2.048h.17a4.609,4.609,0,0,1,2-1.721,6.721,6.721,0,0,1,2.883-.609q5.626,0,5.627,5.722Z" transform="translate(-346.005 -454.674)"/><path d="M854.917,607.959a5.443,5.443,0,0,1-4.566-2.12,11.622,11.622,0,0,1,.02-11.935,5.5,5.5,0,0,1,4.6-2.14,5.391,5.391,0,0,1,4.692,2.274h.169a19.751,19.751,0,0,1-.241-2.657v-5.694h3.335v21.989h-2.6l-.581-2.05h-.154A5.3,5.3,0,0,1,854.917,607.959Zm.889-2.685a3.606,3.606,0,0,0,2.98-1.152,6.057,6.057,0,0,0,.961-3.738v-.468a6.985,6.985,0,0,0-.961-4.2,3.558,3.558,0,0,0-3.009-1.244,3.053,3.053,0,0,0-2.7,1.421,7.3,7.3,0,0,0-.945,4.049,7.079,7.079,0,0,0,.919,3.962A3.1,3.1,0,0,0,855.806,605.274Z" transform="translate(-346.005 -454.674)"/><path d="M888.365,607.676l-2.063-5.737h-7.9l-2.02,5.737H872.82l7.729-20.745h3.674l7.731,20.745Zm-2.955-8.649-1.935-5.624q-.212-.567-.586-1.781t-.516-1.78a31.877,31.877,0,0,1-1.115,3.8l-1.865,5.385Z" transform="translate(-346.005 -454.674)"/><path d="M894.13,587.907a1.832,1.832,0,0,1,.489-1.372,1.89,1.89,0,0,1,1.39-.48,1.854,1.854,0,0,1,1.364.48,1.835,1.835,0,0,1,.488,1.372,1.8,1.8,0,0,1-.488,1.334,1.838,1.838,0,0,1-1.364.488,1.873,1.873,0,0,1-1.39-.488A1.793,1.793,0,0,1,894.13,587.907Zm3.518,19.769h-3.32v-15.63h3.32Z" transform="translate(-346.005 -454.674)"/><path d="M919.7,607.676l-.663-2.176h-.113a6.44,6.44,0,0,1-2.277,1.942,7.188,7.188,0,0,1-2.939.517,4.971,4.971,0,0,1-3.6-1.244,4.66,4.66,0,0,1-1.293-3.52,4.127,4.127,0,0,1,1.8-3.643,10.3,10.3,0,0,1,5.468-1.344l2.7-.085v-.832a3.151,3.151,0,0,0-.7-2.241,2.846,2.846,0,0,0-2.169-.743,7.567,7.567,0,0,0-2.3.352,17.361,17.361,0,0,0-2.122.836l-1.074-2.375a11.667,11.667,0,0,1,2.785-1.009,12.749,12.749,0,0,1,2.855-.347,6.763,6.763,0,0,1,4.5,1.3,5.087,5.087,0,0,1,1.519,4.083v10.529Zm-4.946-2.261a4.115,4.115,0,0,0,2.9-1.01,3.665,3.665,0,0,0,1.1-2.834v-1.357l-2.009.085a6.891,6.891,0,0,0-3.412.784,2.386,2.386,0,0,0-1.066,2.143,2.089,2.089,0,0,0,.621,1.616A2.664,2.664,0,0,0,914.75,605.415Z" transform="translate(-346.005 -454.674)"/><path d="M932.527,605.274a8,8,0,0,0,2.431-.383v2.5a6.677,6.677,0,0,1-1.421.4,9.794,9.794,0,0,1-1.8.162q-4.722,0-4.72-4.975v-8.422h-2.135v-1.47l2.292-1.215,1.13-3.307h2.048v3.476H934.8v2.516h-4.453v8.366a2.342,2.342,0,0,0,.6,1.773A2.187,2.187,0,0,0,932.527,605.274Z" transform="translate(-346.005 -454.674)"/><path d="M951.422,605.274a7.994,7.994,0,0,0,2.431-.383v2.5a6.66,6.66,0,0,1-1.421.4,9.794,9.794,0,0,1-1.8.162q-4.722,0-4.72-4.975v-8.422h-2.135v-1.47l2.292-1.215,1.13-3.307h2.048v3.476H953.7v2.516h-4.453v8.366a2.342,2.342,0,0,0,.6,1.773A2.187,2.187,0,0,0,951.422,605.274Z" transform="translate(-346.005 -454.674)"/><path d="M970.729,607.676h-3.335v-9.61a4.2,4.2,0,0,0-.73-2.7,2.805,2.805,0,0,0-2.31-.892,3.662,3.662,0,0,0-3.073,1.251,6.885,6.885,0,0,0-.984,4.188v7.76h-3.32V585.687h3.32v5.581a26.071,26.071,0,0,1-.17,2.87h.214a4.605,4.605,0,0,1,1.886-1.752,6.083,6.083,0,0,1,2.818-.622q5.681,0,5.684,5.722Z" transform="translate(-346.005 -454.674)"/><path d="M982.173,607.959a7.562,7.562,0,0,1-5.7-2.128,8.082,8.082,0,0,1-2.055-5.858,8.84,8.84,0,0,1,1.909-6.018,6.582,6.582,0,0,1,5.241-2.191,6.451,6.451,0,0,1,4.89,1.878,7.186,7.186,0,0,1,1.8,5.175v1.793H977.835a5.139,5.139,0,0,0,1.229,3.5,4.285,4.285,0,0,0,3.265,1.223,12.022,12.022,0,0,0,2.58-.262,13.519,13.519,0,0,0,2.564-.868v2.7a10.162,10.162,0,0,1-2.459.817A14.919,14.919,0,0,1,982.173,607.959Zm-.607-13.68a3.335,3.335,0,0,0-2.536,1,4.787,4.787,0,0,0-1.138,2.927h7.094a4.315,4.315,0,0,0-.933-2.932A3.186,3.186,0,0,0,981.566,594.279Z" transform="translate(-346.005 -454.674)"/><path d="M1006.366,607.959a7.562,7.562,0,0,1-5.7-2.128,8.082,8.082,0,0,1-2.055-5.858,8.84,8.84,0,0,1,1.909-6.018,6.582,6.582,0,0,1,5.241-2.191,6.448,6.448,0,0,1,4.89,1.878,7.186,7.186,0,0,1,1.8,5.175v1.793h-10.416a5.133,5.133,0,0,0,1.228,3.5,4.288,4.288,0,0,0,3.266,1.223,12.012,12.012,0,0,0,2.579-.262,13.472,13.472,0,0,0,2.564-.868v2.7a10.169,10.169,0,0,1-2.458.817A14.93,14.93,0,0,1,1006.366,607.959Zm-.607-13.68a3.335,3.335,0,0,0-2.536,1,4.793,4.793,0,0,0-1.138,2.927h7.094a4.32,4.32,0,0,0-.932-2.932A3.19,3.19,0,0,0,1005.759,594.279Z" transform="translate(-346.005 -454.674)"/><path d="M1021.489,607.959a5.443,5.443,0,0,1-4.566-2.12,11.619,11.619,0,0,1,.021-11.935,5.5,5.5,0,0,1,4.6-2.14,5.389,5.389,0,0,1,4.691,2.274h.17a19.617,19.617,0,0,1-.242-2.657v-5.694h3.335v21.989h-2.6l-.58-2.05h-.155A5.3,5.3,0,0,1,1021.489,607.959Zm.889-2.685a3.608,3.608,0,0,0,2.981-1.152,6.064,6.064,0,0,0,.961-3.738v-.468a6.992,6.992,0,0,0-.961-4.2,3.558,3.558,0,0,0-3.009-1.244,3.055,3.055,0,0,0-2.7,1.421,7.3,7.3,0,0,0-.945,4.049,7.078,7.078,0,0,0,.92,3.962A3.1,3.1,0,0,0,1022.378,605.274Z" transform="translate(-346.005 -454.674)"/><path d="M1047.447,592.046v1.822l-2.669.5a4.3,4.3,0,0,1,.606,1.215,4.807,4.807,0,0,1,.242,1.527,4.68,4.68,0,0,1-1.67,3.8,6.974,6.974,0,0,1-4.592,1.383,7.225,7.225,0,0,1-1.356-.114,1.872,1.872,0,0,0-1.074,1.558.864.864,0,0,0,.5.8,4.318,4.318,0,0,0,1.844.27h2.729a6.058,6.058,0,0,1,3.926,1.1,3.876,3.876,0,0,1,1.344,3.181,4.622,4.622,0,0,1-2.192,4.1,11.525,11.525,0,0,1-6.331,1.442,8.74,8.74,0,0,1-4.874-1.131,3.656,3.656,0,0,1-1.683-3.222,3.435,3.435,0,0,1,.912-2.423,4.893,4.893,0,0,1,2.552-1.364,2.5,2.5,0,0,1-1.1-.912,2.358,2.358,0,0,1,.062-2.8,5.757,5.757,0,0,1,1.47-1.2,4.355,4.355,0,0,1-1.971-1.7,5.005,5.005,0,0,1-.756-2.762,4.948,4.948,0,0,1,1.6-3.942,6.728,6.728,0,0,1,4.571-1.4,11.158,11.158,0,0,1,1.392.092,8.861,8.861,0,0,1,1.1.19Zm-12.279,18.061a1.829,1.829,0,0,0,.967,1.654,5.317,5.317,0,0,0,2.72.578,8.21,8.21,0,0,0,4.042-.778,2.324,2.324,0,0,0,1.328-2.061,1.548,1.548,0,0,0-.727-1.449,5.835,5.835,0,0,0-2.708-.432h-2.513a3.533,3.533,0,0,0-2.268.671A2.2,2.2,0,0,0,1035.168,610.107Zm1.426-13a3.147,3.147,0,0,0,.756,2.261,2.866,2.866,0,0,0,2.171.791q2.883,0,2.883-3.081a3.5,3.5,0,0,0-.714-2.353,2.716,2.716,0,0,0-2.169-.825,2.8,2.8,0,0,0-2.184.817A3.444,3.444,0,0,0,1036.594,597.106Z" transform="translate(-346.005 -454.674)"/><path d="M1057.167,607.959a7.561,7.561,0,0,1-5.7-2.128,8.078,8.078,0,0,1-2.056-5.858,8.84,8.84,0,0,1,1.91-6.018,6.582,6.582,0,0,1,5.241-2.191,6.451,6.451,0,0,1,4.89,1.878,7.186,7.186,0,0,1,1.8,5.175v1.793H1052.83a5.143,5.143,0,0,0,1.228,3.5,4.289,4.289,0,0,0,3.266,1.223,12.022,12.022,0,0,0,2.58-.262,13.519,13.519,0,0,0,2.564-.868v2.7a10.162,10.162,0,0,1-2.459.817A14.922,14.922,0,0,1,1057.167,607.959Zm-.606-13.68a3.335,3.335,0,0,0-2.536,1,4.787,4.787,0,0,0-1.138,2.927h7.094a4.315,4.315,0,0,0-.933-2.932A3.188,3.188,0,0,0,1056.561,594.279Z" transform="translate(-346.005 -454.674)"/><path class="cls-1" d="M606,461.986v-.2c-1.3-.276-2.63-.543-3.949-.813-.7-.157-1.4-.3-2.1-.433-15.04-3.007-30.968-5.359-47.42-4.28-77.93,5.111-137.056,29.417-157.989,68.684a56.367,56.367,0,0,0-7.766,24.9c-.075.661-.184,1.312-.241,1.979l.145-.026c-.026.706-.1,1.4-.1,2.111,0,30.735,24.2,55.651,54.06,55.651a52.738,52.738,0,0,0,32.015-10.881c12-6.907,24.038-20.561,32.364-38.365.559-1.194,1.067-2.388,1.575-3.582,13.426,15.183,28.51,26.689,43.361,33.7a67.386,67.386,0,0,0,37.3,11.254c38.192,0,69.152-31.871,69.152-71.186C656.4,497.88,635.072,470.4,606,461.986ZM540.837,495.5l22.543.009.016,9.208-13.346,0,0,8.853-9.209-.047Zm.028,62.669-.008-18.4,9.208.048,0,9.147,13.407,0,.016,9.209Zm58.078-62.646,22.626.008.008,18.4-9.208-.047,0-9.147-13.406,0Zm.11,62.668-.016-9.208,13.346,0,0-8.854,9.209.047L621.6,558.2Z" transform="translate(-346.005 -454.674)"/></svg>